C:\GBW_MyPrograms\KinderuniversiteitApp\Resultaten\Ellis\Olaf\Olaf_v1.mot
version=1
nRows=8
nColumns=29
inDegrees=yes
endheader
                time	         pelvis_tilt	           pelvis_tx	           pelvis_ty	       hip_flexion_l	       hip_flexion_r	        knee_angle_l	        knee_angle_r	       ankle_angle_l	       ankle_angle_r	    lumbar_extension	hamstrings_r/activation	bifemsh_r/activation	glut_max_r/activation	iliopsoas_r/activation	rect_fem_r/activation	  vasti_r/activation	gastroc_r/activation	 soleus_r/activation	tib_ant_r/activation	hamstrings_l/activation	bifemsh_l/activation	glut_max_l/activation	iliopsoas_l/activation	rect_fem_l/activation	  vasti_l/activation	gastroc_l/activation	 soleus_l/activation	tib_ant_l/activation	
          0.70838221	         -9.19093677	          0.87685169	          0.89889356	          6.89686478	         32.56503848	        -19.80723172	        -19.44399390	         15.30990917	          1.81919914	         -7.46866643	          0.93632579	          0.10777343	          0.98238429	          0.12276762	          0.20667452	          0.98340040	          0.06068651	          0.10577497	          0.70675781	          0.98544736	          0.98460599	          0.11600979	          0.98299511	          0.05235244	          0.05062599	          0.98637758	          0.98565974	          0.08486450	
          0.71546603	         -9.13700112	          0.88693169	          0.89866760	          7.27685400	         31.21620209	        -21.00130242	        -15.71795674	         15.89088938	         -0.01483931	         -7.22029048	          0.95268780	          0.10759711	          0.98368878	          0.11137112	          0.18702129	          0.98137494	          0.05610755	          0.09626413	          0.79924843	          0.98494277	          0.98466051	          0.10517284	          0.98410456	          0.05254568	          0.05064526	          0.98664953	          0.98611804	          0.07722350	
          0.72254986	         -9.02962626	          0.89719011	          0.90054162	          7.89113795	         29.58316259	        -22.26816086	        -12.96246586	         16.39795912	         -2.17092285	         -7.00221013	          0.96369093	          0.10770602	          0.98447069	          0.10120363	          0.16946310	          0.98040901	          0.05215005	          0.08773420	          0.86233183	          0.98379882	          0.98468838	          0.09547943	          0.98482250	          0.05244495	          0.05063979	          0.98614175	          0.98583989	          0.07008650	
          0.72963368	         -8.87684262	          0.90757286	          0.90419645	          8.42393689	         27.76042290	        -23.43171959	        -11.23522419	         16.74527676	         -3.88503848	         -6.81378434	          0.97082911	          0.10677919	          0.98475549	          0.09212280	          0.15394739	          0.98091062	          0.05691616	          0.08057947	          0.84101333	          0.94259113	          0.98489186	          0.08684322	          0.98533815	          0.05262478	          0.05064852	          0.98723071	          0.98703210	          0.06310554	
          0.73671750	         -8.69745158	          0.91804138	          0.90281869	          8.29225621	         26.04487567	        -25.12622287	         -8.87831667	         16.85970530	         -4.17514485	         -6.64924993	          0.97590505	          0.10790486	          0.98509816	          0.08403731	          0.13997645	          0.98111627	          0.05337459	          0.07383677	          0.89067394	          0.84442383	          0.98520382	          0.07917565	          0.98512665	          0.05224273	          0.05068842	          0.98541846	          0.98524789	          0.05747887	
          0.74380132	         -8.45751964	          0.92842011	          0.89897882	          8.03414743	         25.13838594	        -27.68442802	         -7.73198008	         16.79486134	         -3.98309290	         -6.55441718	          0.97899687	          0.10346735	          0.98512883	          0.07700919	          0.12765404	          0.97537733	          0.05316129	          0.06795342	          0.92243363	          0.75482409	          0.98349374	          0.07232807	          0.98586698	          0.05258735	          0.05070456	          0.98456199	          0.98572570	          0.05460655	
          0.75088515	         -8.18881142	          0.93838384	          0.89746379	          8.19539470	         24.08323418	        -30.15149901	         -7.08639438	         16.30071007	         -3.10499011	         -6.57202413	          0.98327889	          0.10180060	          0.98802784	          0.07071037	          0.11683545	          0.97958754	          0.05312671	          0.06272118	          0.94360065	          0.67468815	          0.98247741	          0.06622726	          0.98670098	          0.05221527	          0.05069266	          0.98724606	          0.98776145	          0.05098182	
          0.75796897	         -7.90330196	          0.94775504	          0.89631183	          8.50616378	         23.28641716	        -32.54585011	         -6.77105492	         15.27144607	         -2.00900448	         -6.70323569	          0.98362828	          0.10325800	          0.98537132	          0.06531643	          0.10786468	          0.98222240	          0.05257937	          0.05796616	          0.95788344	          0.60324897	          0.98290950	          0.06099426	          0.98724342	          0.07079372	          0.05047184	          0.99120964	          0.99233735	          0.05043427	
